<?xml version="1.0" encoding="iso-8859-1"?>
<!-- Generator: Adobe Illustrator 19.0.0, SVG Export Plug-In . SVG Version: 6.00 Build 0)  -->
<svg version="1.1" id="Capa_1" xmlns="http://www.w3.org/2000/svg" xmlns:xlink="http://www.w3.org/1999/xlink" x="0px" y="0px"
	 viewBox="0 0 511.993 511.993" style="enable-background:new 0 0 511.993 511.993;" xml:space="preserve">
<circle style="fill:#F7F7F7;" cx="255.997" cy="255.997" r="255.997"/>
<path style="fill:#E2E1E4;" d="M390.932,248.339L390.932,248.339h-4.936v6.181h-1.864l-2.474-2.474h-4.936v2.474h-1.865
	l-2.474-2.474h-3.837l-5.437-5.437h-4.936v4.936l-1.843,1.843l-2.495-2.495h-0.516L186.916,84.487h-4.936v102.415l-13.612-13.612
	h-4.936v37.502l-13.612-13.612h-4.936v51.129l-4.338-4.338h-4.936v10.547h-1.864l-2.474-2.474h-4.936v2.474h-2.524L122,252.704
	h-4.936v1.814h-1.864l-2.474-2.474l0,0h-4.936v2.474h-1.865l-2.474-2.474h-4.936v2.195l-4.338-4.338h-4.936v4.616H87.38
	l-2.474-2.474h-4.936v2.474h-0.877l-3.462-3.462h-4.936v3.462h-0.876l-3.462-3.462h-4.936v3.462h-4.122v2.961l82.902,82.902
	l41.775,41.775v45.354l84.265,84.265c119.413-4.703,217.804-91.183,240.71-205.001l-52.258-52.258H397.11L390.932,248.339z"/>
<rect x="57.304" y="254.516" style="fill:#797882;" width="397.395" height="2.961"/>
<g>
	<rect x="61.43" y="251.061" style="fill:#3E3E42;" width="4.936" height="9.881"/>
	<rect x="70.699" y="251.061" style="fill:#3E3E42;" width="4.936" height="9.881"/>
	<rect x="79.969" y="252.048" style="fill:#3E3E42;" width="4.936" height="7.907"/>
	<rect x="89.248" y="249.906" style="fill:#3E3E42;" width="4.936" height="12.193"/>
	<rect x="98.517" y="252.048" style="fill:#3E3E42;" width="4.936" height="7.907"/>
	<rect x="107.796" y="252.048" style="fill:#3E3E42;" width="4.936" height="7.907"/>
	<rect x="117.066" y="252.709" style="fill:#3E3E42;" width="4.936" height="6.59"/>
	<rect x="126.335" y="252.048" style="fill:#3E3E42;" width="4.936" height="7.907"/>
	<rect x="135.614" y="243.973" style="fill:#3E3E42;" width="4.936" height="24.054"/>
	<rect x="144.883" y="197.182" style="fill:#3E3E42;" width="4.936" height="117.638"/>
	<rect x="154.163" y="213.49" style="fill:#3E3E42;" width="4.936" height="85.013"/>
	<rect x="163.432" y="173.293" style="fill:#3E3E42;" width="4.936" height="165.416"/>
	<rect x="172.711" y="184.33" style="fill:#3E3E42;" width="4.936" height="143.343"/>
	<rect x="181.98" y="84.49" style="fill:#3E3E42;" width="4.936" height="343.023"/>
	<rect x="191.25" y="137.124" style="fill:#3E3E42;" width="4.936" height="237.744"/>
	<rect x="200.529" y="132.929" style="fill:#3E3E42;" width="4.936" height="246.145"/>
	<rect x="209.798" y="184.33" style="fill:#3E3E42;" width="4.936" height="143.343"/>
	<rect x="219.077" y="209.295" style="fill:#3E3E42;" width="4.936" height="93.423"/>
	<rect x="228.347" y="234.25" style="fill:#3E3E42;" width="4.936" height="43.494"/>
	<rect x="237.626" y="207.064" style="fill:#3E3E42;" width="4.936" height="97.866"/>
	<rect x="246.895" y="218.929" style="fill:#3E3E42;" width="4.936" height="74.145"/>
	<rect x="256.164" y="201.378" style="fill:#3E3E42;" width="4.936" height="109.238"/>
	<rect x="265.444" y="234.25" style="fill:#3E3E42;" width="4.936" height="43.494"/>
	<rect x="274.713" y="234.25" style="fill:#3E3E42;" width="4.936" height="43.494"/>
	<rect x="283.992" y="230.548" style="fill:#3E3E42;" width="4.936" height="50.909"/>
	<rect x="293.261" y="240.923" style="fill:#3E3E42;" width="4.936" height="30.15"/>
	<rect x="302.54" y="246.609" style="fill:#3E3E42;" width="4.936" height="18.785"/>
	<rect x="311.81" y="243.973" style="fill:#3E3E42;" width="4.936" height="24.054"/>
	<rect x="321.079" y="246.609" style="fill:#3E3E42;" width="4.936" height="18.785"/>
	<rect x="330.358" y="249.906" style="fill:#3E3E42;" width="4.936" height="12.193"/>
	<rect x="339.628" y="249.906" style="fill:#3E3E42;" width="4.936" height="12.193"/>
	<rect x="348.907" y="250.893" style="fill:#3E3E42;" width="4.936" height="10.215"/>
	<rect x="358.176" y="246.609" style="fill:#3E3E42;" width="4.936" height="18.785"/>
	<rect x="367.455" y="252.048" style="fill:#3E3E42;" width="4.936" height="7.907"/>
	<rect x="376.724" y="252.048" style="fill:#3E3E42;" width="4.936" height="7.907"/>
	<rect x="385.994" y="248.336" style="fill:#3E3E42;" width="4.936" height="15.321"/>
</g>
<g>
</g>
<g>
</g>
<g>
</g>
<g>
</g>
<g>
</g>
<g>
</g>
<g>
</g>
<g>
</g>
<g>
</g>
<g>
</g>
<g>
</g>
<g>
</g>
<g>
</g>
<g>
</g>
<g>
</g>
</svg>
